HIERARCHY
ROOT ui
{
	 OFFSET 0 0 0
	 CHANNELS 3 XPosition YPosition Z Position
	 EndSite
	 {
	 OFFSET 0 -1 0
	 }
}
ROOT li
{
	 OFFSET 0 0 0
	 CHANNELS 3 XPosition YPosition Z Position
	 EndSite
	 {
	 OFFSET 0 -1 0
	 }
}
ROOT ul
{
	 OFFSET 0 0 0
	 CHANNELS 3 XPosition YPosition Z Position
	 EndSite
	 {
	 OFFSET 0 -1 0
	 }
}
ROOT ll
{
	 OFFSET 0 0 0
	 CHANNELS 3 XPosition YPosition Z Position
	 EndSite
	 {
	 OFFSET 0 -1 0
	 }
}
ROOT tt
{
	 OFFSET 0 0 0
	 CHANNELS 3 XPosition YPosition Z Position
	 EndSite
	 {
	 OFFSET 0 -1 0
	 }
}
ROOT tb
{
	 OFFSET 0 0 0
	 CHANNELS 3 XPosition YPosition Z Position
	 EndSite
	 {
	 OFFSET 0 -1 0
	 }
}
ROOT td
{
	 OFFSET 0 0 0
	 CHANNELS 3 XPosition YPosition Z Position
	 EndSite
	 {
	 OFFSET 0 -1 0
	 }
}
ROOT v
{
	 OFFSET 0 0 0
	 CHANNELS 3 XPosition YPosition Z Position
	 EndSite
	 {
	 OFFSET 0 -1 0
	 }
}
ROOT bn
{
	 OFFSET 0 0 0
	 CHANNELS 3 XPosition YPosition Z Position
	 EndSite
	 {
	 OFFSET 0 -1 0
	 }
}
MOTION
Frames: 13
Frame Time: 0.002
0.003566628932952881	-0.002638936996459961	0		0.44899151611328125	-2.3542333984375	0		-0.9386885375976562	0.22181646728515625	0		-0.6827833862304687	-2.321285888671875	0		2.481896240234375	-0.35024066162109374	0		3.913112548828125	-0.32855352783203123	0		5.14662353515625	-0.39530636596679686	0		5.9565703125	0.4803184814453125	0		-0.279997802734375	5.8727861328125	0		
0.007160426139831543	1.4124099910259246E-4	0		0.47959307861328127	-2.35466015625	0		-0.864060546875	0.22902330017089845	0		-0.6501034545898438	-2.311744140625	0		2.518493896484375	-0.3476868591308594	0		3.92760791015625	-0.33880612182617187	0		5.163103515625	-0.4075577087402344	0		5.96119677734375	0.48817230224609376	0		-0.24546192932128907	5.87831787109375	0		
0.012697138786315919	-0.004128211975097656	0		0.45019732666015627	-2.35464697265625	0		-0.9434537353515625	0.2344101104736328	0		-0.6125255126953125	-2.315275390625	0		2.541302978515625	-0.31805398559570314	0		3.967172119140625	-0.3402852478027344	0		5.18061474609375	-0.41584503173828125	0		5.9576953125	0.480062255859375	0		-0.2800191040039062	5.873359375	0		
0.005253902912139893	-0.0033259859085083008	0		0.46780596923828127	-2.352034423828125	0		-0.8679111328125	0.233544921875	0		-0.6598526000976562	-2.3041689453125	0		2.581918212890625	-0.31058956909179686	0		3.9767021484375	-0.3435544128417969	0		5.181169921875	-0.4160244750976563	0		5.958236328125	0.47989501953125	0		-0.24551667785644532	5.8788271484375	0		
-0.04817206954956055	0.004810317993164063	0		0.44729168701171873	-2.36014892578125	0		-0.942403076171875	0.23383198547363282	0		-0.6593055419921875	-2.304466796875	0		2.57956640625	-0.2938116760253906	0		3.98223291015625	-0.3418161010742187	0		5.2135361328125	-0.43547769165039063	0		5.95873779296875	0.4797048645019531	0		-0.28014096069335936	5.873810546875	0		
0.011176996231079102	-0.00896071720123291	0		0.44980682373046876	-2.357466064453125	0		-0.9319623413085938	0.2324293670654297	0		-0.6708848266601563	-2.3136923828125	0		2.58210205078125	-0.28409381103515624	0		3.98762841796875	-0.3500979919433594	0		5.22397216796875	-0.4387785339355469	0		5.9591826171875	0.4794945068359375	0		-0.27879315185546877	5.8724892578125	0		
-0.03531452560424805	0.007080546855926514	0		0.45425872802734374	-2.353815673828125	0		-0.917490966796875	0.24397872924804687	0		-0.6383876953125	-2.304279296875	0		2.636643310546875	-0.26479922485351565	0		4.029155517578125	-0.33267864990234375	0		5.23840771484375	-0.4331275634765625	0		5.968681640625	0.4951963500976562	0		-0.26243035888671873	5.88203369140625	0		
0.00596189022064209	0.00342313289642334	0		0.4785427551269531	-2.36133251953125	0		-0.9372476806640625	0.23678262329101563	0		-0.6900007934570312	-2.2982216796875	0		2.648065185546875	-0.2501800079345703	0		4.025423095703125	-0.3379193115234375	0		5.26463720703125	-0.44358230590820313	0		5.972912109375	0.4869248962402344	0		-0.28028643798828123	5.8738330078125	0		
-0.042853668212890626	-5.399590134620667E-4	0		0.4467796630859375	-2.36342041015625	0		-0.8620396118164062	0.23583985900878907	0		-0.6098927612304688	-2.317198974609375	0		2.6703916015625	-0.2366541748046875	0		4.04264990234375	-0.3373323974609375	0		5.2648583984375	-0.443843505859375	0		5.960056640625	0.4787762756347656	0		-0.28114962768554685	5.87549169921875	0		
0.006300806999206543	0.002731158018112183	0		0.47491668701171874	-2.366978515625	0		-0.926854248046875	0.24398336791992187	0		-0.6946287841796875	-2.303896484375	0		2.67453564453125	-0.23499195861816408	0		4.053655517578125	-0.35370291137695314	0		5.264990234375	-0.4441103515625	0		5.9561123046875	0.47055142211914064	0		-0.2460771942138672	5.87986767578125	0		
-0.046659671783447265	0.0027945849895477295	0		0.45595172119140626	-2.37217138671875	0		-0.9227890625	0.2475910949707031	0		-0.63669775390625	-2.322703125	0		2.695708251953125	-0.2184627685546875	0		4.067814453125	-0.33909890747070315	0		5.28687890625	-0.46454922485351563	0		5.95220556640625	0.47832342529296873	0		-0.2811644287109375	5.8747880859375	0		
0.010258055686950684	-0.002990786075592041	0		0.4559439697265625	-2.3725087890625	0		-0.9178036499023438	0.251195068359375	0		-0.6826043090820313	-2.30970068359375	0		2.745783935546875	-0.2041551818847656	0		4.08269970703125	-0.3495001220703125	0		5.3118896484375	-0.4590107727050781	0		5.96015625	0.4780031433105469	0		-0.2462530822753906	5.87916943359375	0		
0.0061861581802368166	0.0017023240327835084	0		0.47288864135742187	-2.3699716796875	0		-0.8479507446289063	0.24630430603027345	0		-0.61477783203125	-2.322572509765625	0		2.745676025390625	-0.2044551239013672	0		4.09670947265625	-0.33489019775390627	0		5.31178515625	-0.45927536010742187	0		5.9600390625	0.4777474670410156	0		-0.24644473266601563	5.878828125	0		
